<?xml version="1.0" encoding="utf-8"?>
<!-- Generator: Adobe Illustrator 24.0.2, SVG Export Plug-In . SVG Version: 6.00 Build 0)  -->
<svg version="1.1" id="Capa_1" xmlns="http://www.w3.org/2000/svg" xmlns:xlink="http://www.w3.org/1999/xlink" x="0px" y="0px"
	 viewBox="0 0 194.93 194.93" style="enable-background:new 0 0 194.93 194.93;" xml:space="preserve">
<style type="text/css">
	.st0{opacity:0.78;}
	.st1{fill:#2FD3EA;}
	.st2{fill:#13A6CE;}
	.st3{fill:#FFFFFF;}
</style>
<g class="st0">
	<path class="st1" d="M140.85,30.76c-7.21-4.53-20.18,3.9-33.85,18.35c-8.13-18.15-17.59-30.39-25.89-28.5
		c-8.31,1.9-11.51,17.03-10.96,36.91c-18.59-7.08-33.92-9.05-38.46-1.84c-4.53,7.21,3.9,20.18,18.35,33.85
		c-18.15,8.13-30.39,17.59-28.5,25.89c1.9,8.3,17.03,11.51,36.91,10.96c-7.08,18.59-9.05,33.93-1.84,38.46s20.18-3.9,33.85-18.35
		c8.13,18.15,17.59,30.39,25.89,28.5c2.37-0.54,4.33-2.16,5.9-4.66c3.93-6.26,5.45-18.04,5.06-32.25
		c18.59,7.08,33.93,9.05,38.46,1.84c4.53-7.21-3.9-20.18-18.35-33.85c12.97-5.81,22.92-12.3,26.86-18.56
		c1.57-2.5,2.18-4.97,1.64-7.34c-1.9-8.3-17.03-11.51-36.91-10.96C146.09,50.63,148.06,35.29,140.85,30.76z M77.81,27.11
		c1.16-1.84,2.51-2.98,4.02-3.32c5.85-1.33,14.63,8.99,22.86,27.81c-4.32,4.75-8.68,10.06-12.93,15.7
		c-6.27-3.24-12.5-6.13-18.46-8.54C72.76,43.55,74.49,32.4,77.81,27.11z M109.26,81.04c2.35,1.48,4.63,2.96,6.84,4.43
		c0.66,2.58,1.31,5.22,1.92,7.92c0.62,2.71,1.18,5.36,1.7,7.97c-1.35,2.29-2.76,4.61-4.24,6.96c-1.48,2.35-2.95,4.63-4.43,6.84
		c-2.58,0.66-5.22,1.31-7.92,1.92c-2.7,0.62-5.36,1.18-7.97,1.7c-2.29-1.35-4.61-2.76-6.96-4.24c-2.35-1.48-4.63-2.95-6.84-4.43
		c-0.66-2.58-1.31-5.22-1.92-7.92c-0.62-2.71-1.17-5.37-1.7-7.99c1.35-2.29,2.76-4.6,4.23-6.95c1.47-2.35,2.95-4.62,4.42-6.83
		c2.59-0.67,5.22-1.32,7.93-1.94c2.7-0.62,5.36-1.18,7.97-1.7C104.59,78.15,106.91,79.56,109.26,81.04z M93.6,75.33
		c-1.49,0.34-2.97,0.7-4.45,1.06c1.19-1.71,2.37-3.37,3.55-4.99c1.77,0.95,3.55,1.93,5.37,2.96C96.58,74.67,95.09,74.99,93.6,75.33z
		 M84.41,77.61c-3.06,0.81-6.09,1.68-9.07,2.58c-0.92-6.43-1.53-12.45-1.85-17.99c5.12,2.13,10.6,4.69,16.36,7.68
		C88,72.41,86.18,74.99,84.41,77.61z M81.68,81.7c-0.83,1.28-1.66,2.56-2.47,3.84c-0.81,1.29-1.6,2.59-2.39,3.89
		c-0.37-2.05-0.71-4.06-1.02-6.03C77.72,82.82,79.68,82.25,81.68,81.7z M74.33,93.65c-1.59,2.74-3.12,5.5-4.59,8.25
		c-5.2-3.89-9.88-7.72-14.02-11.4c5.13-2.12,10.81-4.19,17-6.14C73.19,87.44,73.73,90.55,74.33,93.65z M75.29,98.46
		c0.31,1.49,0.64,2.98,0.98,4.47c0.34,1.49,0.7,2.97,1.06,4.45c-1.71-1.19-3.37-2.37-4.99-3.55
		C73.28,102.06,74.26,100.27,75.29,98.46z M78.54,112.13c0.81,3.06,1.68,6.1,2.59,9.08c-6.43,0.93-12.46,1.53-18,1.85
		c2.13-5.12,4.69-10.61,7.69-16.38C73.34,108.53,75.92,110.35,78.54,112.13z M82.62,114.84c1.28,0.83,2.56,1.66,3.85,2.47
		c1.29,0.81,2.59,1.61,3.9,2.4c-2.05,0.37-4.06,0.71-6.04,1.02C83.75,118.81,83.18,116.85,82.62,114.84z M94.59,122.21
		c2.74,1.59,5.5,3.12,8.25,4.59c-3.89,5.2-7.72,9.89-11.42,14.03c-2.12-5.13-4.19-10.82-6.14-17.02
		C88.37,123.34,91.48,122.8,94.59,122.21z M99.39,121.24c1.49-0.31,2.98-0.64,4.47-0.98c1.48-0.34,2.97-0.7,4.45-1.06
		c-1.19,1.71-2.37,3.37-3.55,4.99C102.99,123.25,101.21,122.27,99.39,121.24z M113.06,117.99c3.06-0.81,6.1-1.68,9.09-2.59
		c0.93,6.43,1.53,12.46,1.85,17.99c-5.12-2.13-10.61-4.69-16.37-7.69C109.46,123.19,111.28,120.61,113.06,117.99z M115.78,113.91
		c0.83-1.28,1.66-2.56,2.47-3.85c0.81-1.29,1.61-2.59,2.4-3.9c0.37,2.05,0.71,4.06,1.02,6.04
		C119.75,112.79,117.78,113.35,115.78,113.91z M123.14,101.94c1.59-2.74,3.12-5.49,4.59-8.25c5.2,3.89,9.89,7.72,14.03,11.42
		c-5.13,2.12-10.82,4.19-17.02,6.14C124.27,108.16,123.74,105.05,123.14,101.94z M122.18,97.14c-0.31-1.49-0.64-2.98-0.98-4.47
		c-0.34-1.49-0.7-2.97-1.06-4.45c1.71,1.19,3.37,2.37,4.99,3.55C124.19,93.54,123.2,95.33,122.18,97.14z M118.92,83.47
		c-0.81-3.06-1.68-6.1-2.59-9.08c6.43-0.93,12.46-1.53,18-1.85c-2.13,5.12-4.69,10.61-7.69,16.38
		C124.12,87.07,121.54,85.25,118.92,83.47z M114.84,80.75c-1.28-0.83-2.56-1.66-3.85-2.47c-1.29-0.81-2.59-1.61-3.9-2.4
		c2.05-0.37,4.06-0.71,6.04-1.02C113.72,76.79,114.29,78.75,114.84,80.75z M102.88,73.39c-2.74-1.59-5.5-3.12-8.25-4.59
		c3.89-5.2,7.72-9.89,11.42-14.03c2.12,5.13,4.19,10.82,6.14,17.02C109.1,72.26,105.99,72.8,102.88,73.39z M34.45,57.41
		c3.19-5.08,16.7-3.99,35.83,3.5c0.3,6.41,0.97,13.25,1.97,20.25c-6.73,2.14-13.18,4.51-19.09,7.02
		C38.1,74.19,31.26,62.49,34.45,57.41z M24.72,114.7c-0.35-1.51,0.09-3.22,1.25-5.06c3.32-5.29,12.62-11.69,26.57-17.79
		c4.75,4.32,10.05,8.68,15.7,12.92c-3.24,6.28-6.13,12.51-8.54,18.46C39.17,123.98,26.05,120.55,24.72,114.7z M58.35,162.08
		c-5.08-3.19-3.99-16.7,3.5-35.83c6.41-0.3,13.25-0.97,20.24-1.96c2.14,6.73,4.51,13.18,7.02,19.09
		C75.13,158.43,63.43,165.28,58.35,162.08z M115.63,171.81c-5.85,1.33-14.63-8.99-22.86-27.81c4.32-4.75,8.68-10.06,12.93-15.7
		c6.28,3.24,12.51,6.13,18.46,8.54C124.91,157.36,121.48,170.48,115.63,171.81z M163.02,138.19c-3.19,5.08-16.71,3.99-35.83-3.5
		c-0.3-6.41-0.97-13.25-1.96-20.24c6.73-2.14,13.18-4.51,19.09-7.02C159.36,121.41,166.21,133.11,163.02,138.19z M172.75,80.9
		c1.33,5.85-8.99,14.64-27.81,22.86c-4.75-4.32-10.06-8.68-15.71-12.93c3.24-6.28,6.13-12.51,8.54-18.46
		C158.3,71.62,171.41,75.05,172.75,80.9z M135.62,69.34c-6.41,0.3-13.25,0.97-20.24,1.96c-2.14-6.73-4.51-13.18-7.02-19.09
		c13.98-15.05,25.68-21.89,30.76-18.7S143.11,50.22,135.62,69.34z"/>
	<circle class="st2" cx="38.13" cy="98.31" r="6.51"/>
	<circle class="st2" cx="53.75" cy="54.33" r="4.88"/>
	<path class="st2" d="M129.62,147.26c4.33,2.72,5.63,8.43,2.91,12.75c-2.72,4.33-8.43,5.63-12.75,2.91
		c-4.33-2.72-5.63-8.43-2.91-12.75C119.58,145.85,125.29,144.55,129.62,147.26z"/>
	<path class="st2" d="M145.69,46.69c2.49,1.56,3.24,4.85,1.68,7.34s-4.85,3.24-7.34,1.67c-2.49-1.56-3.24-4.85-1.68-7.34
		C139.92,45.88,143.2,45.13,145.69,46.69z"/>
</g>
<path class="st3" d="M142,236"/>
<text transform="matrix(1 0 0 1 338.3115 236.5586)" style="fill:#1A9699; font-family:'Spartan-Regular'; font-size:50.5216px;">Innovatelab</text>
<path class="st3" d="M368.77,13.23h-14.16c-2.57,0-4.66-2.21-4.66-4.93v-34.18c0-1.43,0.99-3.14,2.21-3.76
	c4.25-2.16,7.79-0.96,10.34,0.27c1.54,0.74,2.5,2.38,2.5,4.17l0,10.57c12.55-7.96,25.1,0,25.1,0s15.06-7.96,28.86,0
	c0,0,15.06-6.63,27.61,0c0,0,10.82-7.43,13.8,9.29l0,0c3.76-17.25,15.06-9.29,15.06-9.29c11.29-6.63,27.61,0,27.61,0v-5.22
	c0-1.9,1.03-3.63,2.67-4.41c2.63-1.24,6.95-2.3,11.82,0.46c1.15,0.65,1.83,1.97,1.83,3.35v5.82c15.06-7.96,26.35,0,26.35,0l0-12.47
	c0-1.46,0.71-2.81,1.86-3.62c4.46-3.13,7.79-2.09,9.78-0.69c1.37,0.97,2.17,2.62,2.17,4.37v13.73c15.06-11.94,30.12,0,30.12,0
	v-13.98c0-1.46,0.76-2.83,1.99-3.5c2.6-1.41,5.27-0.7,7.08,0.17c1.35,0.65,2.22,2.07,2.22,3.65v11.01c0,0,10.04-2.65,16.31,5.31
	c0,0,2.95,4.99,1.57,12.39c-1.25,6.72-6.97,11.48-13.45,11.48c0,0-129.07-0.1-129.62,0.06c-13.57,4.05-27.59-0.13-28.07,0.01
	c-16.5,5.04-27.5-0.02-27.63,0.01c-18.87,5.02-28.87,0.02-28.87,0.02c-13,4-23,0-23,0"/>
<circle class="st2" cx="327.24" cy="214.98" r="7.84"/>
<circle class="st2" cx="346.05" cy="162" r="5.88"/>
<path class="st2" d="M437.43,273.94c5.21,3.27,6.78,10.15,3.51,15.36c-3.27,5.21-10.15,6.78-15.36,3.51
	c-5.21-3.27-6.78-10.15-3.51-15.36C425.34,272.24,432.22,270.67,437.43,273.94z"/>
<path class="st2" d="M456.79,152.8c3,1.88,3.9,5.84,2.02,8.84s-5.84,3.9-8.84,2.02c-3-1.88-3.9-5.84-2.02-8.84
	S453.79,150.91,456.79,152.8z"/>
<path class="st3" d="M433.07,208.58"/>
<g>
	<path class="st1" d="M322.8,165.71c3.84-6.12,20.12-4.81,43.15,4.21c0.37,7.72,1.17,15.96,2.37,24.39
		c-3.46,1.1-6.83,2.26-10.14,3.45l0,4.03c3.41-1.23,6.98-2.45,10.71-3.62c0.26,1.71,0.55,3.43,0.85,5.15
		c1.34-0.15,2.65-0.19,3.91-0.15c-0.37-2.08-0.71-4.14-1.03-6.16c2.31-0.7,4.66-1.38,7.08-2.05c-1,1.54-2,3.08-2.97,4.63
		c-0.75,1.2-1.49,2.41-2.22,3.62c1.5,0.09,2.92,0.3,4.24,0.57c0.43-0.7,0.86-1.39,1.3-2.1c1.77-2.82,3.55-5.57,5.33-8.23
		c3.11-0.8,6.28-1.59,9.55-2.33c3.26-0.74,6.46-1.43,9.6-2.05c2.76,1.63,5.56,3.33,8.39,5.11c2.83,1.78,5.58,3.56,8.24,5.34
		c0.66,2.56,1.3,5.18,1.92,7.85c0.03,0.02,0.07,0.04,0.1,0.06c0,0,1.36-0.59,3.62-1.3c-0.26-1.1-0.52-2.2-0.79-3.29
		c1.21,0.84,2.4,1.68,3.57,2.52c2.36-0.59,5.23-1.13,8.39-1.36c3.49-6.88,6.64-13.71,9.28-20.24c24.72-0.91,40.52,3.23,42.13,10.27
		c0.72,3.17-1.4,7.05-6.01,11.27c2.04-0.27,3.67-0.11,4.95,0.41c1.14-1.24,2.13-2.48,2.9-3.71c1.89-3.01,2.63-5.98,1.98-8.84
		c-2.28-10-20.51-13.86-44.46-13.2c8.53-22.39,10.9-40.86,2.22-46.32c-8.69-5.46-24.3,4.7-40.77,22.1
		c-9.8-21.86-21.18-36.61-31.19-34.32c-10.01,2.29-13.87,20.51-13.2,44.46c-22.39-8.53-40.86-10.9-46.32-2.22
		c-5.29,8.43,4.11,23.38,20.56,39.29v-5.28C325.64,183.1,319.35,171.2,322.8,165.71z M382.97,190.04
		c-3.68,0.98-7.33,2.02-10.93,3.11c-1.11-7.75-1.84-14.99-2.22-21.66c6.17,2.56,12.77,5.65,19.71,9.25
		C387.3,183.78,385.12,186.89,382.97,190.04z M394.05,187.3c-1.79,0.41-3.57,0.84-5.36,1.28c1.43-2.06,2.86-4.06,4.28-6.02
		c2.13,1.14,4.28,2.33,6.46,3.56C397.64,186.5,395.84,186.89,394.05,187.3z M415,190.85c-1.55-0.98-3.12-1.93-4.69-2.89
		c2.47-0.45,4.89-0.86,7.28-1.23c0.7,2.31,1.38,4.67,2.05,7.09C418.09,192.83,416.55,191.83,415,190.85z M433.85,203.66
		c-3.04-2.22-6.14-4.41-9.3-6.55c-0.98-3.69-2.02-7.34-3.12-10.94c7.75-1.11,15-1.85,21.67-2.23
		C440.54,190.1,437.46,196.71,433.85,203.66z M448.88,136.93c6.12,3.84,4.8,20.12-4.21,43.15c-7.72,0.37-15.96,1.17-24.38,2.37
		c-2.58-8.11-5.43-15.88-8.45-22.99C428.66,141.33,442.76,133.08,448.88,136.93z M416.43,183.02c-3.72,0.57-7.46,1.22-11.21,1.94
		c-3.3-1.91-6.62-3.76-9.94-5.53c4.69-6.27,9.3-11.92,13.75-16.9C411.59,168.7,414.08,175.56,416.43,183.02z M375.03,129.21
		c1.4-2.22,3.02-3.59,4.84-4c7.05-1.61,17.62,10.83,27.54,33.5c-5.2,5.72-10.46,12.11-15.57,18.92
		c-7.56-3.91-15.06-7.39-22.23-10.28C368.94,149.02,371.03,135.58,375.03,129.21z"/>
	<path class="st1" d="M470.93,243.05c6.74,8.97,9.17,16.07,6.73,19.96c-3.84,6.12-20.12,4.8-43.16-4.22
		c-0.24-4.99-0.67-10.21-1.26-15.54c-1.47-0.21-2.78-0.46-3.9-0.72c0.61,5.16,1.06,10.08,1.32,14.7
		c-6.17-2.56-12.78-5.65-19.72-9.26c1.17-1.6,2.33-3.22,3.48-4.86c-1.8,0.25-3.5,0.42-5.11,0.52c-0.61,0.85-1.21,1.69-1.82,2.52
		c-1.47-0.79-2.96-1.61-4.45-2.44c-8.77-0.35-13.33-2.62-13.33-2.62c-5.86,1.8-11.21,2.26-15.61,2.12
		c-5.91,0.75-11.51,1.27-16.75,1.57c0.52-1.25,1.08-2.53,1.64-3.82h-4.1c-0.57,1.35-1.15,2.69-1.68,4.02
		c-24.72,0.91-40.52-3.23-42.13-10.27c-0.42-1.82,0.11-3.88,1.5-6.1c3.63-5.78,13.19-12.65,27.46-19.36v-4.15
		c-21.01,9.64-35.01,20.72-32.78,30.48c2.28,10,20.51,13.86,44.46,13.2c-8.53,22.39-10.9,40.86-2.22,46.32
		c8.69,5.46,24.3-4.7,40.77-22.1c9.8,21.86,21.18,36.61,31.19,34.32c2.86-0.65,5.21-2.6,7.1-5.61c4.74-7.54,6.57-21.73,6.1-38.84
		c22.39,8.53,40.87,10.91,46.32,2.22c3.29-5.24,0.9-12.99-5.32-21.93C474,243.19,472.42,243.14,470.93,243.05z M351.58,291.79
		c-6.12-3.84-4.8-20.12,4.21-43.15c7.72-0.37,15.96-1.17,24.38-2.37c2.58,8.11,5.43,15.88,8.45,22.99
		C371.8,287.39,357.7,295.63,351.58,291.79z M384.03,245.7c3.72-0.57,7.46-1.22,11.21-1.94c3.3,1.91,6.62,3.76,9.94,5.53
		c-4.69,6.27-9.3,11.92-13.75,16.9C388.87,260.02,386.38,253.16,384.03,245.7z M420.58,303.51c-7.04,1.61-17.62-10.83-27.54-33.5
		c5.2-5.72,10.46-12.11,15.57-18.92c7.56,3.91,15.07,7.39,22.24,10.28C431.76,286.1,427.63,301.9,420.58,303.51z"/>
	<path class="st3" d="M373.84,204.28c0.22-0.36,0.44-0.71,0.66-1.07c-0.28-0.02-0.57-0.03-0.85-0.04
		C373.72,203.54,373.78,203.91,373.84,204.28z"/>
	<path class="st3" d="M340.04,202.92v2.18c0.51-0.23,1.02-0.47,1.54-0.7C341.06,203.91,340.55,203.42,340.04,202.92z"/>
	<path class="st3" d="M409.31,243.64c0.82-1.15,1.64-2.31,2.46-3.49c-1.78,0.44-3.57,0.87-5.36,1.28c-1.79,0.41-3.58,0.8-5.38,1.17
		c0.67,0.38,1.34,0.75,2.01,1.12C404.93,243.79,407.02,243.78,409.31,243.64z"/>
</g>
</svg>
